<?xml version="1.0" encoding="UTF-8" standalone="no"?>
<!DOCTYPE svg PUBLIC "-//W3C//DTD SVG 1.1//EN" "http://www.w3.org/Graphics/SVG/1.1/DTD/svg11.dtd">
<svg version="1.1" xmlns="http://www.w3.org/2000/svg" xmlns:xlink="http://www.w3.org/1999/xlink" viewBox="-240 -240 480 480" width="48" height="48">
	<defs>
		<path id="plane"  d="M -45.0 -25.0 L -37.0427548279 -13.6325068971 L -202.937697826 152.262436101 A 5 5 0 0 0 -202.938 159.334L -193.042099639 169.229102099 A 5 5 0 0 0 -185.971 169.229L -23.0702063587 6.3282766305 L -10.0 25.0 L -5.0 195.0 L -55.4950857274 200.024571363 A 5 5 0 0 0 -60 205L -60.0 220.0 A 5 5 0 0 0 -55.4951 224.975L -5.0 230.0 L 0.0 240.0 L 5.0 230.0 L 55.4950857274 224.975428637 A 5 5 0 0 0 60 220L 60.0 205.0 A 5 5 0 0 0 55.4951 200.025L 5.0 195.0 L 10.0 25.0 L 23.0702063587 6.3282766305 L 185.971031827 169.229102099 A 5 5 0 0 0 193.042 169.229L 202.937697826 159.333503912 A 5 5 0 0 0 202.938 152.262L 37.0427548279 -13.6325068971 L 45.0 -25.0 L 45.0 -61.7419297282 L 202.937697826 -219.679627554 A 5 5 0 0 0 202.938 -226.751L 193.042099639 -236.646293552 A 5 5 0 0 0 185.971 -236.646L 45.0 -95.675261725 L 45.0 -165.0 A 50.2778 50.2778 0 0 0 8.88178e-016 -215A 50.2778 50.2778 0 0 0 -45 -165L -45.0 -95.675261725 L -185.971031827 -236.646293552 A 5 5 0 0 0 -193.042 -236.646L -202.937697826 -226.750695366 A 5 5 0 0 0 -202.938 -219.68L -45.0 -61.7419297282 L -45.0 -25.0"/>
	</defs>
	<g>
		<g>
			<use xlink:href="#plane" opacity="1" fill="#ff0000" stroke="none" />
		</g>
	</g>
</svg>
