<?xml version="1.0" encoding="UTF-8" standalone="no"?>
<!DOCTYPE svg PUBLIC "-//W3C//DTD SVG 1.1//EN" "http://www.w3.org/Graphics/SVG/1.1/DTD/svg11.dtd">
<svg version="1.1" xmlns="http://www.w3.org/2000/svg" xmlns:xlink="http://www.w3.org/1999/xlink" preserveAspectRatio="xMidYMid meet" viewBox="0 0 640 640" width="30" height="30"><defs><path d="M220 510L420 510L540 320L420 130L220 130L101.23 320L220 510Z" id="aiZfribdM"></path><path d="M372 321C372 349.15 349.15 372 321 372C292.85 372 270 349.15 270 321C270 292.85 292.85 270 321 270C349.15 270 372 292.85 372 321Z" id="bqj10td4c"></path><path d="M180 570L30 320L180 70L460 70L610 320L460 570L460 570L180 570ZM220 500L420 500L530 320L420 140L220 140L110 320L110 320L220 500Z" id="e1ZfYIrcFY"></path></defs><g><g><g><use xlink:href="#aiZfribdM" opacity="1" fill="#ffffff" fill-opacity="1"></use></g><g><use xlink:href="#bqj10td4c" opacity="1" fill="#513282" fill-opacity="1"></use></g><g><use xlink:href="#e1ZfYIrcFY" opacity="1" fill="#513282" fill-opacity="1"></use></g></g></g></svg>