<?xml version="1.0" encoding="UTF-8" standalone="no"?>
<!DOCTYPE svg PUBLIC "-//W3C//DTD SVG 1.1//EN" "http://www.w3.org/Graphics/SVG/1.1/DTD/svg11.dtd">
<svg version="1.1" xmlns="http://www.w3.org/2000/svg" xmlns:xlink="http://www.w3.org/1999/xlink" preserveAspectRatio="xMidYMid meet" viewBox="0 0 640 640" width="30" height="30"><defs><path d="M80 130L560 130L560 510L80 510L80 130Z" id="afifrmElg"></path><path d="M372 321C372 349.15 349.15 372 321 372C292.85 372 270 349.15 270 321C270 292.85 292.85 270 321 270C349.15 270 372 292.85 372 321Z" id="b6IWzF0KA"></path><path d="M550 420L502 500L550 500L550 570L90 570L90 500L138 500L90 420L90 570L20 570L20 70L90 70L90 220L138 140L90 140L90 70L620 70L620 570L550 570L550 570L550 420ZM420 500L530 320L420 140L220 140L110 320L220 500L220 500L420 500ZM502 140L550 220L550 140L550 140L502 140Z" id="a4Msz8QZ0x"></path></defs><g><g><g><use xlink:href="#afifrmElg" opacity="1" fill="#ffffff" fill-opacity="1"></use></g><g><use xlink:href="#b6IWzF0KA" opacity="1" fill="#513282" fill-opacity="1"></use></g><g><use xlink:href="#a4Msz8QZ0x" opacity="1" fill="#513282" fill-opacity="1"></use></g></g></g></svg>